<?xml version="1.0" encoding="UTF-8" standalone="no"?> <svg xmlns="http://www.w3.org/2000/svg" viewBox="0 0 64 64"><defs><style>.cls-1{fill:#80cff2;}.cls-2{fill:#4eb6ee;}.cls-3{fill:#f6ab2b;}</style></defs><g id="Layer_83" data-name="Layer 83"><rect class="cls-1" x="2.5" y="2.5" width="59" height="59" rx="8.21"/><path class="cls-2" d="M60.57,19a1.5,1.5,0,0,0-1.63.33L37.07,41.24l-13.3-13.3a1.49,1.49,0,0,0-1.94-.15L3.12,41.46a1.49,1.49,0,0,0-.62,1.21V53.29a8.22,8.22,0,0,0,8.21,8.21H53.29a8.22,8.22,0,0,0,8.21-8.21V20.43A1.51,1.51,0,0,0,60.57,19Z"/><path class="cls-3" d="M39.54,10.64a6.54,6.54,0,1,0,6.53,6.54A6.54,6.54,0,0,0,39.54,10.64Z"/></g></svg>